<svg width="1350" height="600" viewBox="0 0 1350 600" fill="none" xmlns="http://www.w3.org/2000/svg">
<path d="M600 360H750V570H600V360Z" fill="#CFFFBE"/>
<path d="M840 450V360H990V450H960V570H870V450H840Z" fill="#BED4FF"/>
<path d="M360 360H510V570H360V360Z" fill="#FFBEBE"/>
<path d="M1170 30H1320V240H1170V30Z" fill="#FFBEED"/>
<path d="M690 30H840V240H690V30Z" fill="#FFDDBE"/>
<path d="M450 30H600V240H450V30Z" fill="#CFBEFF"/>
<path d="M120 240H30V30H180V150H120V240Z" fill="#FEFFBE"/>
<path d="M270 30H360V240H270V30Z" fill="#BEFFFB"/>
<path d="M1020 30H930V240H1080V150H1020V30Z" fill="#BEF7FF"/>
<path d="M750 360H780V390H750V360Z" fill="#585858"/>
<path d="M750 330V360H720V330H750Z" fill="#585858"/>
<path d="M570 360H600V390H570V360Z" fill="#585858"/>
<path d="M750 390H780V420H750V390Z" fill="#585858"/>
<path d="M720 330V360H690V330H720Z" fill="#585858"/>
<path d="M570 390H600V420H570V390Z" fill="#585858"/>
<path d="M660 420H690V450H660V420Z" fill="#585858"/>
<path d="M810 360H840V390H810V360Z" fill="#585858"/>
<path d="M330 360H360V390H330V360Z" fill="#585858"/>
<path d="M990 360H1020V390H990V360Z" fill="#585858"/>
<path d="M510 360H540V390H510V360Z" fill="#585858"/>
<path d="M810 390H840V420H810V390Z" fill="#585858"/>
<path d="M330 390H360V420H330V390Z" fill="#585858"/>
<path d="M990 390H1020V420H990V390Z" fill="#585858"/>
<path d="M510 390H540V420H510V390Z" fill="#585858"/>
<path d="M810 420H840V450H810V420Z" fill="#585858"/>
<path d="M330 420H360V450H330V420Z" fill="#585858"/>
<path d="M990 420H1020V450H990V420Z" fill="#585858"/>
<path d="M510 420H540V450H510V420Z" fill="#585858"/>
<path d="M420 420H450V450H420V420Z" fill="#585858"/>
<path d="M840 510H870V540H840V510Z" fill="#585858"/>
<path d="M330 510H360V540H330V510Z" fill="#585858"/>
<path d="M960 510H990V540H960V510Z" fill="#585858"/>
<path d="M510 510H540V540H510V510Z" fill="#585858"/>
<path d="M840 450H870V480H840V450Z" fill="#585858"/>
<path d="M330 450H360V480H330V450Z" fill="#585858"/>
<path d="M960 450H990V480H960V450Z" fill="#585858"/>
<path d="M510 450H540V480H510V450Z" fill="#585858"/>
<path d="M840 540H870V570H840V540Z" fill="#585858"/>
<path d="M330 540H360V570H330V540Z" fill="#585858"/>
<path d="M960 540H990V570H960V540Z" fill="#585858"/>
<path d="M510 540H540V570H510V540Z" fill="#585858"/>
<path d="M840 480H870V510H840V480Z" fill="#585858"/>
<path d="M330 480H360V510H330V480Z" fill="#585858"/>
<path d="M960 480H990V510H960V480Z" fill="#585858"/>
<path d="M510 480H540V510H510V480Z" fill="#585858"/>
<path d="M870 570H900V600H870V570Z" fill="#585858"/>
<path d="M360 570H390V600H360V570Z" fill="#585858"/>
<path d="M450 570H480V600H450V570Z" fill="#585858"/>
<path d="M870 330H900V360H870V330Z" fill="#585858"/>
<path d="M840 330H870V360H840V330Z" fill="#585858"/>
<path d="M360 330H390V360H360V330Z" fill="#585858"/>
<path d="M450 330H480V360H450V330Z" fill="#585858"/>
<path d="M900 570H930V600H900V570Z" fill="#585858"/>
<path d="M390 570H420V600H390V570Z" fill="#585858"/>
<path d="M480 570H510V600H480V570Z" fill="#585858"/>
<path d="M900 330H930V360H900V330Z" fill="#585858"/>
<path d="M390 330H420V360H390V330Z" fill="#585858"/>
<path d="M480 330H510V360H480V330Z" fill="#585858"/>
<path d="M930 570H960V600H930V570Z" fill="#585858"/>
<path d="M420 540H450V570H420V540Z" fill="#585858"/>
<path d="M420 510H450V540H420V510Z" fill="#585858"/>
<path d="M930 330H960V360H930V330Z" fill="#585858"/>
<path d="M960 330H990V360H960V330Z" fill="#585858"/>
<path d="M420 330H450V360H420V330Z" fill="#585858"/>
<path d="M750 420H780V450H750V420Z" fill="#585858"/>
<path d="M690 330V360H660V330H690Z" fill="#585858"/>
<path d="M570 420H600V450H570V420Z" fill="#585858"/>
<path d="M750 450H780V480H750V450Z" fill="#585858"/>
<path d="M660 330V360H630V330H660Z" fill="#585858"/>
<path d="M570 450H600V480H570V450Z" fill="#585858"/>
<path d="M630 330V360H600V330H630Z" fill="#585858"/>
<path d="M570 480H600V510H570V480Z" fill="#585858"/>
<path d="M570 510H600V540H570V510Z" fill="#585858"/>
<path d="M570 540H600V570H570V540Z" fill="#585858"/>
<path d="M720 480H750V510H720V480Z" fill="#585858"/>
<path d="M750 480H780V510H750V480Z" fill="#585858"/>
<path d="M750 510H780V540H750V510Z" fill="#585858"/>
<path d="M750 540H780V570H750V540Z" fill="#585858"/>
<path d="M660 570H690V600H660V570Z" fill="#585858"/>
<path d="M660 540H690V570H660V540Z" fill="#585858"/>
<path d="M660 510H690V540H660V510Z" fill="#585858"/>
<path d="M720 570H750V600H720V570Z" fill="#585858"/>
<path d="M630 570H660V600H630V570Z" fill="#585858"/>
<path d="M690 570H720V600H690V570Z" fill="#585858"/>
<path d="M600 570H630V600H600V570Z" fill="#585858"/>
<path d="M180 30H210V60H180V30Z" fill="#585858"/>
<path d="M180 0V30H150V3.57746e-07L180 0Z" fill="#585858"/>
<path d="M0 30H30V60H0L0 30Z" fill="#585858"/>
<path d="M180 60H210V90H180V60Z" fill="#585858"/>
<path d="M150 3.57746e-07V30H120V3.57746e-07H150Z" fill="#585858"/>
<path d="M0 60H30V90H0V60Z" fill="#585858"/>
<path d="M90 90H120V120H90V90Z" fill="#585858"/>
<path d="M240 30H270V60H240V30Z" fill="#585858"/>
<path d="M660 30H690V60H660V30Z" fill="#585858"/>
<path d="M1140 30H1170V60H1140V30Z" fill="#585858"/>
<path d="M900 30H930V60H900V30Z" fill="#585858"/>
<path d="M360 30H390V60H360V30Z" fill="#585858"/>
<path d="M840 30H870V60H840V30Z" fill="#585858"/>
<path d="M1320 30H1350V60H1320V30Z" fill="#585858"/>
<path d="M1020 30H1050V60H1020V30Z" fill="#585858"/>
<path d="M420 30H450V60H420V30Z" fill="#585858"/>
<path d="M600 30H630V60H600V30Z" fill="#585858"/>
<path d="M240 60H270V90H240V60Z" fill="#585858"/>
<path d="M660 60H690V90H660V60Z" fill="#585858"/>
<path d="M1140 60H1170V90H1140V60Z" fill="#585858"/>
<path d="M900 60H930V90H900V60Z" fill="#585858"/>
<path d="M360 60H390V90H360V60Z" fill="#585858"/>
<path d="M840 60H870V90H840V60Z" fill="#585858"/>
<path d="M1320 60H1350V90H1320V60Z" fill="#585858"/>
<path d="M1020 60H1050V90H1020V60Z" fill="#585858"/>
<path d="M420 60H450V90H420V60Z" fill="#585858"/>
<path d="M600 60H630V90H600V60Z" fill="#585858"/>
<path d="M240 90H270V120H240V90Z" fill="#585858"/>
<path d="M660 90H690V120H660V90Z" fill="#585858"/>
<path d="M1140 90H1170V120H1140V90Z" fill="#585858"/>
<path d="M900 90H930V120H900V90Z" fill="#585858"/>
<path d="M360 90H390V120H360V90Z" fill="#585858"/>
<path d="M840 90H870V120H840V90Z" fill="#585858"/>
<path d="M1320 90H1350V120H1320V90Z" fill="#585858"/>
<path d="M810 90H840V120H810V90Z" fill="#585858"/>
<path d="M1290 90H1320V120H1290V90Z" fill="#585858"/>
<path d="M780 90H810V120H780V90Z" fill="#585858"/>
<path d="M1260 90H1290V120H1260V90Z" fill="#585858"/>
<path d="M1020 90H1050V120H1020V90Z" fill="#585858"/>
<path d="M420 90H450V120H420V90Z" fill="#585858"/>
<path d="M600 90H630V120H600V90Z" fill="#585858"/>
<path d="M240 180H270V210H240V180Z" fill="#585858"/>
<path d="M660 180H690V210H660V180Z" fill="#585858"/>
<path d="M1140 180H1170V210H1140V180Z" fill="#585858"/>
<path d="M900 180H930V210H900V180Z" fill="#585858"/>
<path d="M360 180H390V210H360V180Z" fill="#585858"/>
<path d="M840 180H870V210H840V180Z" fill="#585858"/>
<path d="M1320 180H1350V210H1320V180Z" fill="#585858"/>
<path d="M1080 210H1110V240H1080V210Z" fill="#585858"/>
<path d="M420 180H450V210H420V180Z" fill="#585858"/>
<path d="M600 180H630V210H600V180Z" fill="#585858"/>
<path d="M240 120H270V150H240V120Z" fill="#585858"/>
<path d="M660 120H690V150H660V120Z" fill="#585858"/>
<path d="M1140 120H1170V150H1140V120Z" fill="#585858"/>
<path d="M900 120H930V150H900V120Z" fill="#585858"/>
<path d="M360 120H390V150H360V120Z" fill="#585858"/>
<path d="M840 120H870V150H840V120Z" fill="#585858"/>
<path d="M1320 120H1350V150H1320V120Z" fill="#585858"/>
<path d="M1020 120H1050V150H1020V120Z" fill="#585858"/>
<path d="M1050 120H1080V150H1050V120Z" fill="#585858"/>
<path d="M420 120H450V150H420V120Z" fill="#585858"/>
<path d="M450 120H480V150H450V120Z" fill="#585858"/>
<path d="M600 120H630V150H600V120Z" fill="#585858"/>
<path d="M570 120H600V150H570V120Z" fill="#585858"/>
<path d="M240 210H270V240H240V210Z" fill="#585858"/>
<path d="M660 210H690V240H660V210Z" fill="#585858"/>
<path d="M1140 210H1170V240H1140V210Z" fill="#585858"/>
<path d="M900 210H930V240H900V210Z" fill="#585858"/>
<path d="M360 210H390V240H360V210Z" fill="#585858"/>
<path d="M840 210H870V240H840V210Z" fill="#585858"/>
<path d="M1320 210H1350V240H1320V210Z" fill="#585858"/>
<path d="M1020 240H1050V270H1020V240Z" fill="#585858"/>
<path d="M1050 240H1080V270H1050V240Z" fill="#585858"/>
<path d="M420 210H450V240H420V210Z" fill="#585858"/>
<path d="M600 210H630V240H600V210Z" fill="#585858"/>
<path d="M240 150H270V180H240V150Z" fill="#585858"/>
<path d="M660 150H690V180H660V150Z" fill="#585858"/>
<path d="M1140 150H1170V180H1140V150Z" fill="#585858"/>
<path d="M900 150H930V180H900V150Z" fill="#585858"/>
<path d="M360 150H390V180H360V150Z" fill="#585858"/>
<path d="M840 150H870V180H840V150Z" fill="#585858"/>
<path d="M1320 150H1350V180H1320V150Z" fill="#585858"/>
<path d="M810 150H840V180H810V150Z" fill="#585858"/>
<path d="M1200 150H1230V180H1200V150Z" fill="#585858"/>
<path d="M780 150H810V180H780V150Z" fill="#585858"/>
<path d="M1170 150H1200V180H1170V150Z" fill="#585858"/>
<path d="M1080 180H1110V210H1080V180Z" fill="#585858"/>
<path d="M1080 150H1110V180H1080V150Z" fill="#585858"/>
<path d="M420 150H450V180H420V150Z" fill="#585858"/>
<path d="M600 150H630V180H600V150Z" fill="#585858"/>
<path d="M270 240H300V270H270V240Z" fill="#585858"/>
<path d="M690 240H720V270H690V240Z" fill="#585858"/>
<path d="M1170 240H1200V270H1170V240Z" fill="#585858"/>
<path d="M780 240H810V270H780V240Z" fill="#585858"/>
<path d="M1260 240H1290V270H1260V240Z" fill="#585858"/>
<path d="M930 240H960V270H930V240Z" fill="#585858"/>
<path d="M270 0H300V30H270V0Z" fill="#585858"/>
<path d="M690 0H720V30H690V0Z" fill="#585858"/>
<path d="M1170 0H1200V30H1170V0Z" fill="#585858"/>
<path d="M780 0H810V30H780V0Z" fill="#585858"/>
<path d="M1260 0H1290V30H1260V0Z" fill="#585858"/>
<path d="M930 0H960V30H930V0Z" fill="#585858"/>
<path d="M450 0H480V30H450V0Z" fill="#585858"/>
<path d="M450 240H480V270H450V240Z" fill="#585858"/>
<path d="M300 240H330V270H300V240Z" fill="#585858"/>
<path d="M720 240H750V270H720V240Z" fill="#585858"/>
<path d="M1200 240H1230V270H1200V240Z" fill="#585858"/>
<path d="M810 240H840V270H810V240Z" fill="#585858"/>
<path d="M1290 240H1320V270H1290V240Z" fill="#585858"/>
<path d="M960 240H990V270H960V240Z" fill="#585858"/>
<path d="M300 0H330V30H300V0Z" fill="#585858"/>
<path d="M720 0H750V30H720V0Z" fill="#585858"/>
<path d="M1200 0H1230V30H1200V0Z" fill="#585858"/>
<path d="M810 0H840V30H810V0Z" fill="#585858"/>
<path d="M1290 0H1320V30H1290V0Z" fill="#585858"/>
<path d="M960 0H990V30H960V0Z" fill="#585858"/>
<path d="M480 0H510V30H480V0Z" fill="#585858"/>
<path d="M480 240H510V270H480V240Z" fill="#585858"/>
<path d="M330 240H360V270H330V240Z" fill="#585858"/>
<path d="M750 240H780V270H750V240Z" fill="#585858"/>
<path d="M1230 240H1260V270H1230V240Z" fill="#585858"/>
<path d="M990 240H1020V270H990V240Z" fill="#585858"/>
<path d="M330 0H360V30H330V0Z" fill="#585858"/>
<path d="M750 0H780V30H750V0Z" fill="#585858"/>
<path d="M1230 0H1260V30H1230V0Z" fill="#585858"/>
<path d="M990 0H1020V30H990V0Z" fill="#585858"/>
<path d="M510 0H540V30H510V0Z" fill="#585858"/>
<path d="M510 30H540V60H510V30Z" fill="#585858"/>
<path d="M510 60H540V90H510V60Z" fill="#585858"/>
<path d="M510 240H540V270H510V240Z" fill="#585858"/>
<path d="M510 210H540V240H510V210Z" fill="#585858"/>
<path d="M510 180H540V210H510V180Z" fill="#585858"/>
<path d="M540 0H570V30H540V0Z" fill="#585858"/>
<path d="M570 0H600V30H570V0Z" fill="#585858"/>
<path d="M540 240H570V270H540V240Z" fill="#585858"/>
<path d="M570 240H600V270H570V240Z" fill="#585858"/>
<path d="M180 90H210V120H180V90Z" fill="#585858"/>
<path d="M120 3.57746e-07V30H90V3.57746e-07H120Z" fill="#585858"/>
<path d="M0 90H30V120H0V90Z" fill="#585858"/>
<path d="M180 120H210V150H180V120Z" fill="#585858"/>
<path d="M90 3.57746e-07V30H60V3.57746e-07H90Z" fill="#585858"/>
<path d="M0 120H30V150H0V120Z" fill="#585858"/>
<path d="M60 3.57746e-07V30H30V3.57746e-07H60Z" fill="#585858"/>
<path d="M0 150H30V180H0V150Z" fill="#585858"/>
<path d="M0 180H30V210H0V180Z" fill="#585858"/>
<path d="M0 210H30V240H0V210Z" fill="#585858"/>
<path d="M150 150H180V180H150V150Z" fill="#585858"/>
<path d="M120 150H150V180H120V150Z" fill="#585858"/>
<path d="M120 180H150V210H120V180Z" fill="#585858"/>
<path d="M120 210H150V240H120V210Z" fill="#585858"/>
<path d="M90 240H120V270H90V240Z" fill="#585858"/>
<path d="M60 240H90V270H60V240Z" fill="#585858"/>
<path d="M30 240H60V270H30V240Z" fill="#585858"/>
<path fill-rule="evenodd" clip-rule="evenodd" d="M30 0H180V30H30V0ZM30 240H0V30H30V240ZM120 240V270H30V240H120ZM180 150V180H150V240H120V180V150H150H180ZM180 150H210V30H180V150ZM270 30H240V240H270V270H360V240H390V30H360V0H270V30ZM270 30H360V240H270V30ZM600 30H630V120V150V240H600V150H570V120H600V30ZM450 30V0H510H540H600V30H540V90H510V30H450ZM450 240H420V150V120V30H450V120H480V150H450V240ZM450 240V270H510H540H600V240H540V180H510V240H450ZM690 30H660V240H690V270H840V240H870V180V150V120V90V30H840V0H690V30ZM690 30H840V90H780V120H840V150H780V180H840V240H690V30ZM930 30H900V240H930V270H1080V240H1110V150H1080V120H1050V30H1020V0H930V30ZM930 30H1020V120V150H1050H1080V240H930V30ZM1140 30H1170V150H1230V180H1170V240H1140V180V150V30ZM1320 240V270H1170V240H1320ZM1320 30H1350V90V120V240H1320V120H1260V90H1320V30ZM1320 30V0H1170V30H1320ZM330 360H360V570H330V360ZM420 570V600H360V570H420ZM450 570V510H420V570H450ZM510 570V600H450V570H510ZM510 360H540V570H510V360ZM510 360H360V330H510V360ZM570 360H600V570H570V360ZM750 570V600H690H660H600V570H660V510H690V570H750ZM750 360H780V480V510V570H750V510H720V480H750V360ZM750 360V330H600V360H750ZM840 330H990V360H840V330ZM840 450H810V360H840V450ZM870 570H840V450H870V570ZM960 570V600H870V570H960ZM990 450V570H960V450H990ZM990 450H1020V360H990V450Z" fill="#585858"/>
</svg>
